<svg id="visual" viewBox="0 0 900 600" width="900" height="600" xmlns="http://www.w3.org/2000/svg" xmlns:xlink="http://www.w3.org/1999/xlink" version="1.1"><g><g transform="translate(119 341)"><path d="M103.2 -54.5C124 -23.7 124.2 24.1 103.6 57.6C83 91.1 41.5 110.4 1.2 109.7C-39.1 109.1 -78.3 88.4 -97.5 55.7C-116.8 23 -116.1 -21.8 -96.5 -51.9C-77 -82 -38.5 -97.4 1.4 -98.2C41.2 -99 82.5 -85.2 103.2 -54.5Z" stroke="#aaa" fill="none" stroke-width="4" opacity="0.1"></path></g><g transform="translate(777 520)"><path d="M79.8 -43.3C96.2 -17.6 97.5 19.7 81.6 47.8C65.8 76 32.9 94.9 0.3 94.7C-32.2 94.5 -64.5 75.2 -78.2 48.3C-91.9 21.4 -87 -13 -70.9 -38.5C-54.8 -64 -27.4 -80.7 2.1 -81.9C31.7 -83.1 63.3 -69 79.8 -43.3Z" stroke="#aaa" fill="none" stroke-width="4" opacity="0.1"></path></g><g transform="translate(590 178)"><path d="M48.3 -27.1C60 -7.6 65.1 16.4 55.9 35.2C46.8 53.9 23.4 67.2 1.7 66.2C-20 65.2 -40 49.9 -49.2 31.2C-58.5 12.4 -57 -9.8 -47 -28.3C-37 -46.8 -18.5 -61.6 -0.1 -61.6C18.3 -61.5 36.6 -46.6 48.3 -27.1Z" stroke="#aaa" fill="none" stroke-width="4" opacity="0.1"></path></g><g transform="translate(448 520)"><path d="M53.7 -30.1C65.1 -11.4 66.5 13.9 55.9 31.7C45.3 49.5 22.7 59.8 -0.4 60C-23.5 60.2 -46.9 50.4 -57.4 32.7C-67.8 15 -65.2 -10.6 -53.5 -29.5C-41.8 -48.4 -20.9 -60.6 0.2 -60.7C21.2 -60.8 42.4 -48.8 53.7 -30.1Z" stroke="#aaa" fill="none" stroke-width="4" opacity="0.1"></path></g><g transform="translate(86 22)"><path d="M46.2 -27C56 -9.6 57.5 12.2 48.4 30.8C39.3 49.5 19.6 64.9 -1 65.5C-21.7 66.1 -43.5 51.9 -52.8 33.1C-62 14.4 -58.9 -8.9 -48 -26.9C-37.2 -44.9 -18.6 -57.6 -0.2 -57.5C18.2 -57.4 36.4 -44.4 46.2 -27Z" stroke="#aaa" fill="none" stroke-width="4" opacity="0.1"></path></g></g></svg>