<svg id="visual" viewBox="0 0 900 600" width="900" height="600" xmlns="http://www.w3.org/2000/svg" xmlns:xlink="http://www.w3.org/1999/xlink" version="1.1"><g><g transform="translate(888 385)"><path d="M0 -147L86.4 -118.9L139.8 -45.4L139.8 45.4L86.4 118.9L0 147L-86.4 118.9L-139.8 45.4L-139.8 -45.4L-86.4 -118.9Z" fill="none" stroke="#0a256c" stroke-width="2" opacity="0.1"></path></g><g transform="translate(423 256)"><path d="M0 -114L67 -92.2L108.4 -35.2L108.4 35.2L67 92.2L0 114L-67 92.2L-108.4 35.2L-108.4 -35.2L-67 -92.2Z" fill="none" stroke="#0a256c" stroke-width="2" opacity="0.1"></path></g><g transform="translate(39 13)"><path d="M0 -133L78.2 -107.6L126.5 -41.1L126.5 41.1L78.2 107.6L0 133L-78.2 107.6L-126.5 41.1L-126.5 -41.1L-78.2 -107.6Z" fill="none" stroke="#0a256c" stroke-width="2" opacity="0.1"></path></g><g transform="translate(400 588)"><path d="M0 -122L71.7 -98.7L116 -37.7L116 37.7L71.7 98.7L0 122L-71.7 98.7L-116 37.7L-116 -37.7L-71.7 -98.7Z" stroke="#a71e1e" fill="none" stroke-width="2" opacity="0.1"></path></g><g transform="translate(704 130)"><path d="M0 -126L74.1 -101.9L119.8 -38.9L119.8 38.9L74.1 101.9L0 126L-74.1 101.9L-119.8 38.9L-119.8 -38.9L-74.1 -101.9Z" stroke="#0a256c" fill="none" stroke-width="2" opacity="0.1"></path></g><g transform="translate(104 332)"><path d="M0 -135L79.4 -109.2L128.4 -41.7L128.4 41.7L79.4 109.2L0 135L-79.4 109.2L-128.4 41.7L-128.4 -41.7L-79.4 -109.2Z" stroke="#a71e1e" fill="none" stroke-width="2" opacity="0.1"></path></g></g></svg>