<svg id="visual" viewBox="0 0 900 600" width="900" height="600" xmlns="http://www.w3.org/2000/svg" xmlns:xlink="http://www.w3.org/1999/xlink" version="1.1"><g><g transform="translate(690 222)"><path d="M0 -147L86.4 -118.9L139.8 -45.4L139.8 45.4L86.4 118.9L0 147L-86.4 118.9L-139.8 45.4L-139.8 -45.4L-86.4 -118.9Z" fill="none" stroke="#ed6b6b" stroke-width="2"></path></g><g transform="translate(491 512)"><path d="M0 -128L75.2 -103.6L121.7 -39.6L121.7 39.6L75.2 103.6L0 128L-75.2 103.6L-121.7 39.6L-121.7 -39.6L-75.2 -103.6Z" fill="none" stroke="#ed6b6b" stroke-width="2"></path></g><g transform="translate(168 327)"><path d="M0 -121L71.1 -97.9L115.1 -37.4L115.1 37.4L71.1 97.9L0 121L-71.1 97.9L-115.1 37.4L-115.1 -37.4L-71.1 -97.9Z" fill="none" stroke="#0a256c" stroke-width="2"></path></g></g></svg>