<svg width="718" height="479" viewBox="0 0 718 479" fill="none" xmlns="http://www.w3.org/2000/svg">
<path d="M781.831 288.532C752.661 364.059 697.819 430.229 621.644 459.309C611.736 463.085 601.62 466.289 591.344 468.904C536.996 482.76 477.54 477.94 427.441 452.692C406.178 441.967 386.789 427.796 365.449 417.226C344.109 406.655 319.74 399.737 296.513 404.955C276.514 409.447 259.641 422.322 242.653 433.791C202.604 460.83 154.45 482.228 107.027 472.941C85.2058 468.673 63.7183 456.851 53.5842 437.09C31.1853 393.402 73.4288 341.461 64.8735 293.146C59.399 262.224 34.3943 239.068 18.8499 211.779C-7.75286 165.1 -4.60805 103.096 26.5836 59.357C57.7752 15.6182 115.358 -7.58301 168.152 2.33925C232.532 14.4437 281.206 68.9261 343.807 88.2058C382.957 100.252 425.464 96.6584 462.855 80.793C523.268 55.1532 606.266 15.8299 674.252 22.2351C710.405 25.6431 745.865 41.6882 769.727 69.0865C799.892 103.673 808.935 152.778 803.903 198.384C800.45 229.257 793.031 259.556 781.831 288.532Z" fill="url(#paint0_linear_24_132)"/>
<path d="M35.421 346.685C31.0128 346.589 26.8205 344.758 23.7542 341.59C20.6879 338.421 18.995 334.171 19.0432 329.762C19.0914 325.353 20.8767 321.141 24.0115 318.041C27.1463 314.939 31.3776 313.201 35.7868 313.201C40.1962 313.201 44.4274 314.939 47.5623 318.041C50.6971 321.141 52.4823 325.353 52.5305 329.762C52.5786 334.171 50.8858 338.421 47.8196 341.59C44.7532 344.758 40.5609 346.589 36.1527 346.685H35.421ZM35.421 320.904H35.0424C32.6615 320.956 30.3971 321.945 28.7407 323.656C27.0844 325.367 26.1699 327.662 26.1957 330.044C26.2214 332.425 27.1855 334.699 28.8785 336.374C30.5714 338.049 32.8567 338.988 35.2381 338.988C37.6195 338.988 39.9048 338.049 41.5978 336.374C43.2908 334.699 44.2548 332.425 44.2806 330.044C44.3064 327.662 43.3918 325.367 41.7355 323.656C40.0791 321.945 37.8147 320.956 35.4338 320.904H35.421Z" fill="#E7F6FF"/>
<path d="M23.4829 374.785C27.4952 374.612 30.6074 371.219 30.4344 367.206C30.2613 363.195 26.8684 360.082 22.8561 360.255C18.8438 360.428 15.7316 363.821 15.9046 367.833C16.0777 371.845 19.4706 374.958 23.4829 374.785Z" fill="#E7F6FF"/>
<path d="M455.09 75.966C451.094 75.9692 447.229 74.5425 444.194 71.9432C441.159 69.3439 439.155 65.744 438.545 61.7951C437.935 57.8463 438.759 53.8094 440.867 50.4152C442.975 47.021 446.229 44.4938 450.04 43.2909C453.85 42.0881 457.965 42.2891 461.64 43.8575C465.315 45.426 468.307 48.2584 470.074 51.8418C471.842 55.4253 472.268 59.5232 471.276 63.3937C470.284 67.2645 467.938 70.6519 464.665 72.9431C461.858 74.907 458.515 75.9622 455.09 75.966ZM455.038 50.191C452.7 50.1886 450.452 51.0885 448.761 52.7033C447.07 54.318 446.068 56.5229 445.963 58.8584C445.858 61.194 446.658 63.48 448.197 65.2402C449.736 67 451.895 68.0982 454.224 68.3055C456.552 68.5128 458.871 67.8138 460.697 66.3531C462.523 64.893 463.715 62.7845 464.024 60.4672C464.333 58.1498 463.737 55.8024 462.358 53.9143C460.979 52.0263 458.925 50.743 456.623 50.3322C456.1 50.2389 455.57 50.1917 455.038 50.191Z" fill="#E7F6FF"/>
<path d="M420.949 75.0521C424.237 72.7461 425.033 68.2118 422.727 64.9232C420.421 61.6354 415.887 60.839 412.599 63.1447C409.31 65.4507 408.515 69.9851 410.82 73.2737C413.126 76.5616 417.661 77.3581 420.949 75.0521Z" fill="#E7F6FF"/>
<path d="M825.358 162.224C825.358 155.168 822.554 148.399 817.567 143.409C812.574 138.419 805.809 135.615 798.749 135.615C798.159 135.615 797.575 135.615 796.997 135.673C797.036 135.095 797.055 134.511 797.055 133.921C797.055 130.139 796.246 126.401 794.687 122.956C793.127 119.51 790.855 116.436 788.012 113.94C785.169 111.443 781.831 109.58 778.212 108.477C774.598 107.372 770.786 107.052 767.038 107.536C763.283 108.021 759.683 109.3 756.461 111.287C753.245 113.275 750.486 115.925 748.374 119.062C746.263 122.199 744.844 125.75 744.209 129.478C743.58 133.207 743.747 137.028 744.709 140.685C741.494 138.354 737.797 136.771 733.889 136.054C729.98 135.337 725.962 135.505 722.131 136.544C718.293 137.582 714.744 139.467 711.727 142.058C708.717 144.65 706.33 147.883 704.725 151.519C703.127 155.156 702.363 159.104 702.492 163.075C702.62 167.046 703.634 170.937 705.463 174.465C707.286 177.993 709.879 181.066 713.049 183.46C716.22 185.855 719.884 187.509 723.78 188.301C725.372 192.516 728.003 196.259 731.437 199.179C734.864 202.098 738.985 204.098 743.394 204.992C747.809 205.886 752.385 205.645 756.679 204.291C760.973 202.936 764.856 200.512 767.962 197.247C771.139 199.645 774.81 201.3 778.712 202.089C782.614 202.879 786.638 202.784 790.496 201.811C794.359 200.838 797.947 199.012 801.008 196.468C804.07 193.923 806.515 190.724 808.177 187.107C813.228 185.192 817.573 181.787 820.648 177.343C823.715 172.898 825.358 167.626 825.358 162.224Z" fill="white"/>
<path d="M122.873 98.2629C122.876 94.767 122.191 91.3045 120.856 88.0736C119.52 84.8428 117.561 81.9066 115.091 79.433C112.62 76.9595 109.687 74.9969 106.457 73.6581C103.228 72.3187 99.7662 71.6287 96.2703 71.6281C95.6799 71.6281 95.0958 71.6281 94.5182 71.6858C94.5567 71.1082 94.576 70.5242 94.576 69.9337C94.5753 66.1522 93.7686 62.4137 92.209 58.9681C90.65 55.5226 88.3742 52.4491 85.5336 49.9524C82.693 47.4557 79.3524 45.5932 75.7352 44.4891C72.118 43.385 68.307 43.0647 64.5563 43.5493C60.8058 44.034 57.2015 45.3127 53.9839 47.3C50.7662 49.2874 48.0092 51.9379 45.8966 55.0746C43.7839 58.2115 42.3642 61.7626 41.732 65.4912C41.0999 69.22 41.2698 73.0407 42.2305 76.6983C39.0146 74.366 35.3172 72.7833 31.4098 72.0671C27.5024 71.3502 23.4841 71.5177 19.6497 72.5561C15.8153 73.5952 12.2623 75.4795 9.25124 78.0711C6.24021 80.6627 3.84764 83.8955 2.24908 87.532C0.65054 91.169 -0.113414 95.1174 0.0132958 99.0882C0.140005 103.058 1.15416 106.95 2.98134 110.478C4.80851 114.006 7.40234 117.079 10.5725 119.473C13.7426 121.867 17.4086 123.522 21.3013 124.314C22.8922 128.525 25.5257 132.264 28.9552 135.181C32.3846 138.098 36.4981 140.096 40.9104 140.99C45.3227 141.884 49.8897 141.644 54.184 140.292C58.4782 138.94 62.3592 136.521 65.4638 133.26C68.6401 135.658 72.3137 137.313 76.214 138.102C80.1142 138.892 84.1422 138.797 88.0007 137.824C91.8592 136.851 95.4507 135.025 98.5102 132.48C101.57 129.935 104.019 126.737 105.679 123.12C110.728 121.209 115.076 117.808 118.147 113.369C121.218 108.93 122.866 103.661 122.873 98.2629Z" fill="white"/>
<path d="M612.395 476.883H229.56V468.539H612.395C613.502 468.539 614.563 468.979 615.345 469.761C616.127 470.543 616.567 471.605 616.567 472.711C616.567 473.817 616.127 474.878 615.345 475.661C614.563 476.443 613.502 476.883 612.395 476.883Z" fill="#426572"/>
<path d="M212.437 476.883H189.03C187.924 476.883 186.863 476.443 186.08 475.661C185.298 474.878 184.858 473.817 184.858 472.711C184.858 471.605 185.298 470.543 186.08 469.761C186.863 468.979 187.924 468.539 189.03 468.539H212.437C213.543 468.539 214.604 468.979 215.386 469.761C216.169 470.543 216.608 471.605 216.608 472.711C216.608 473.817 216.169 474.878 215.386 475.661C214.604 476.443 213.543 476.883 212.437 476.883Z" fill="#426572"/>
<path d="M173.839 476.883H166.381C165.274 476.883 164.214 476.443 163.431 475.661C162.649 474.878 162.209 473.817 162.209 472.711C162.209 471.605 162.649 470.543 163.431 469.761C164.214 468.979 165.274 468.539 166.381 468.539H173.839C174.945 468.539 176.006 468.979 176.788 469.761C177.571 470.543 178.01 471.605 178.01 472.711C178.01 473.817 177.571 474.878 176.788 475.661C176.006 476.443 174.945 476.883 173.839 476.883Z" fill="#426572"/>
<path d="M746.635 476.883H628.967V468.539H746.635C747.739 468.539 748.804 468.979 749.587 469.761C750.37 470.543 750.806 471.605 750.806 472.711C750.806 473.817 750.37 474.878 749.587 475.661C748.804 476.443 747.739 476.883 746.635 476.883Z" fill="#426572"/>
<path d="M145.047 476.883H27.3728V468.539H145.047C146.154 468.539 147.215 468.979 147.997 469.761C148.779 470.543 149.219 471.605 149.219 472.711C149.219 473.817 148.779 474.878 147.997 475.661C147.215 476.443 146.154 476.883 145.047 476.883Z" fill="#426572"/>
<path d="M182.336 151.251H610.945C618.68 151.251 626.099 154.322 631.571 159.791C637.042 165.261 640.118 172.678 640.121 180.414V457.84H153.16V180.414C153.163 172.678 156.238 165.261 161.71 159.791C167.181 154.322 174.6 151.251 182.336 151.251Z" fill="#EBF0F9"/>
<path d="M623.197 172.525H172.016V430.273H623.197V172.525Z" fill="#637F91"/>
<path d="M168.634 429.793H625.116C625.116 431.839 624.306 433.802 622.862 435.252C621.419 436.703 619.46 437.523 617.414 437.533H176.367C174.314 437.533 172.346 436.717 170.894 435.266C169.443 433.815 168.627 431.846 168.627 429.793H168.634Z" fill="white"/>
<g opacity="0.5">
<path opacity="0.5" d="M306.839 171.562L239.38 431.724H205.409L272.869 171.562H306.839Z" fill="#A7BCD5"/>
<path opacity="0.5" d="M393.425 171.563L325.972 431.724H254.731L322.191 171.563H393.425Z" fill="#A7BCD5"/>
</g>
<path d="M643.972 461.691H149.309V167.976C149.316 162.521 151.486 157.291 155.343 153.434C159.201 149.576 164.431 147.406 169.885 147.4H623.396C628.851 147.406 634.081 149.576 637.938 153.434C641.795 157.291 643.966 162.521 643.972 167.976V461.691ZM157.011 453.989H636.27V167.976C636.267 164.562 634.91 161.29 632.496 158.876C630.082 156.462 626.81 155.105 623.396 155.102H169.885C166.472 155.105 163.199 156.462 160.785 158.876C158.372 161.29 157.014 164.562 157.011 167.976V453.989Z" fill="#426572"/>
<path d="M91.7456 448.656H714.596V450.703C714.596 457.342 711.958 463.708 707.266 468.402C702.568 473.096 696.202 475.733 689.565 475.733H116.776C110.138 475.733 103.771 473.096 99.0769 468.402C94.3828 463.708 91.7456 457.342 91.7456 450.703V448.656Z" fill="#EBF0F9"/>
<path opacity="0.5" d="M711.406 461.71C710.039 465.271 707.619 468.332 704.474 470.491C701.33 472.649 697.601 473.804 693.788 473.802H108.67C104.858 473.802 101.134 472.646 97.9915 470.487C94.8486 468.329 92.4342 465.269 91.0652 461.71H711.406Z" fill="#A7BCD5"/>
<path d="M686.658 478.614H113.875C106.218 478.605 98.8767 475.56 93.4625 470.146C88.0476 464.731 85.0022 457.39 84.9939 449.733V443.835H715.546V449.733C715.539 457.391 712.491 464.733 707.074 470.148C701.657 475.563 694.315 478.607 686.658 478.614ZM92.7661 451.537C93.218 456.822 95.6369 461.746 99.5442 465.334C103.452 468.922 108.563 470.912 113.869 470.913H686.658C691.966 470.912 697.075 468.922 700.983 465.334C704.892 461.746 707.311 456.822 707.761 451.537H92.7661Z" fill="#426572"/>
<path d="M626.079 432.674H167.19V168.674H626.079V432.674ZM174.891 424.972H618.377V176.376H174.891V424.972Z" fill="#426572"/>
<path d="M554.229 89.7853V428.824H246.67V89.7853C246.682 88.2572 247.294 86.7945 248.375 85.7137C249.456 84.6329 250.919 84.0206 252.447 84.0091H548.427C548.776 84.0091 549.124 84.0418 549.466 84.1054C550.796 84.3512 552 85.0527 552.869 86.0892C553.738 87.1257 554.218 88.433 554.229 89.7853Z" fill="white"/>
<path d="M251.51 112.031H555.198V91.6344L549.39 83.9841H283.427H257.312L247.64 91.6344V112.031H251.51Z" fill="#E2F2FF"/>
<path d="M559.049 432.675H243.789V89.7853C243.799 87.2354 244.816 84.7927 246.62 82.9893C248.423 81.1858 250.866 80.1685 253.416 80.1583H549.383C551.933 80.1685 554.376 81.1858 556.179 82.9893C557.983 84.7927 559 87.2354 559.01 89.7853L559.049 432.675ZM251.49 424.973H551.347V89.7853C551.334 89.2789 551.127 88.7963 550.769 88.4382C550.411 88.08 549.928 87.8727 549.422 87.8599H253.442C252.935 87.8727 252.452 88.08 252.094 88.4382C251.736 88.7963 251.529 89.2789 251.516 89.7853L251.49 424.973Z" fill="#426572"/>
<path d="M536.278 95.8703H265.732C263.595 95.8703 261.862 97.6025 261.862 99.7403C261.862 101.878 263.595 103.61 265.732 103.61H536.278C538.415 103.61 540.148 101.878 540.148 99.7403C540.148 97.6025 538.415 95.8703 536.278 95.8703Z" fill="#CADCE8"/>
<path d="M347.928 148.35H284.691V220.405H347.928V148.35Z" fill="#E8837E"/>
<path d="M503.841 148.35H353.896V220.405H503.841V148.35Z" fill="#E8837E"/>
<path d="M503.841 228.382H433.043V300.437H503.841V228.382Z" fill="#DDE4ED"/>
<path d="M427.075 228.382H285.487V300.437H427.075V228.382Z" fill="#DDE4ED"/>
<path d="M504.239 308.415H285.487V380.47H504.239V308.415Z" fill="#DDE4ED"/>
<path d="M506.17 390.154H450.077V397.856H506.17V390.154Z" fill="#DDE4ED"/>
<path d="M199.742 410.462H107.926C106.414 410.473 104.924 410.102 103.593 409.384C101.668 408.331 100.436 406.605 100.436 404.66L100.487 278.443C100.488 277.617 100.71 276.807 101.129 276.094C102.297 274.066 104.935 272.641 107.977 272.641H199.793C203.002 272.641 205.704 274.194 206.782 276.364C207.109 277.006 207.281 277.716 207.283 278.437L207.238 404.66C207.238 407.574 204.421 410.006 200.782 410.404C200.436 410.443 200.089 410.463 199.742 410.462Z" fill="white"/>
<path d="M202.239 409.494L110.39 409.474C108.879 409.485 107.389 409.114 106.058 408.396C104.133 407.343 102.9 405.617 102.9 403.672L102.952 277.455C102.953 276.629 103.174 275.819 103.594 275.106C104.762 273.078 107.399 271.654 110.442 271.654H111.693L111.674 395.932C111.674 397.858 112.919 399.603 114.832 400.656C116.162 401.374 117.652 401.745 119.164 401.734H209.735V403.66C209.735 406.573 206.917 409.006 203.278 409.404C202.934 409.453 202.586 409.483 202.239 409.494Z" fill="#D6DEE9"/>
<path d="M200.987 413.344H109.164C106.999 413.355 104.866 412.819 102.964 411.784C99.7552 410.006 97.8298 406.977 97.8298 403.691L97.8812 277.474C97.8889 275.969 98.2939 274.492 99.0557 273.193C100.981 269.888 104.832 267.828 109.228 267.828H201.045C205.537 267.828 209.548 270.042 211.371 273.482L211.885 274.271V274.631C212.217 275.547 212.386 276.513 212.385 277.487L212.334 403.704C212.334 408.543 208.079 412.689 202.444 413.273C201.96 413.324 201.473 413.348 200.987 413.344ZM109.209 275.497C107.483 275.497 106.135 276.261 105.705 277.018C105.621 277.147 105.574 277.296 105.57 277.448L105.519 403.665C105.519 404.089 105.987 404.628 106.687 405.019C107.45 405.423 108.301 405.63 109.164 405.623H200.98C201.182 405.624 201.383 405.613 201.584 405.591C203.509 405.385 204.626 404.307 204.626 403.665L204.677 277.448C204.677 277.372 204.664 277.296 204.639 277.224L204.279 276.672C203.392 275.871 202.226 275.45 201.032 275.497H109.215H109.209Z" fill="#426572"/>
<path d="M190.397 327.257H128.129V334.959H190.397V327.257Z" fill="#426572"/>
<path d="M190.397 311.187H128.129V318.889H190.397V311.187Z" fill="#426572"/>
<path d="M190.397 345.466H128.129V353.168H190.397V345.466Z" fill="#426572"/>
<path opacity="0.2" d="M688.013 182.34C692.499 173.921 695.252 164.688 696.112 155.186C696.972 145.684 695.92 136.107 693.019 127.019C690.118 117.931 685.42 109.516 679.213 102.271C673.007 95.0263 665.415 89.098 656.879 84.8358C648.343 80.5735 639.041 78.0641 629.52 77.4557C619.999 76.8472 610.453 78.152 601.445 81.2924C592.437 84.4333 584.148 89.347 577.069 95.7426C569.991 102.139 564.265 109.887 560.23 118.532C554.657 128.997 551.776 140.683 551.846 152.539C551.916 164.395 554.935 176.047 560.631 186.445C566.327 196.842 574.521 205.66 584.474 212.101C594.427 218.543 605.826 222.407 617.645 223.345C615.583 223.833 613.488 224.228 611.362 224.532C622.55 226.145 633.961 225.081 644.659 221.425C655.351 217.77 665.03 211.63 672.892 203.507C679.181 197.434 684.309 190.26 688.013 182.34Z" fill="#606060"/>
<path d="M615.334 206.663C654.786 206.663 686.767 174.681 686.767 135.23C686.767 95.7791 654.786 63.7974 615.334 63.7974C575.884 63.7974 543.902 95.7791 543.902 135.23C543.902 174.681 575.884 206.663 615.334 206.663Z" fill="#A8EF9E"/>
<path d="M683.359 140.334C683.359 150.576 681.152 160.697 676.896 170.013C672.641 179.328 666.429 187.618 658.689 194.323C650.948 201.028 641.854 205.99 632.025 208.872C622.198 211.755 611.865 212.49 601.729 211.029C618.726 208.572 634.27 200.073 645.512 187.089C656.757 174.105 662.944 157.506 662.944 140.331C662.944 123.156 656.757 106.557 645.512 93.5732C634.27 80.5896 618.726 72.0908 601.729 69.6334C611.866 68.1713 622.2 68.9062 632.029 71.7885C641.86 74.6709 650.955 79.6326 658.695 86.3382C666.435 93.0437 672.648 101.336 676.903 110.652C681.164 119.969 683.366 130.092 683.366 140.334H683.359Z" fill="#A7E59C"/>
<path d="M613.634 213.911C598.744 213.911 584.189 209.495 571.809 201.223C559.428 192.951 549.779 181.193 544.081 167.437C538.383 153.681 536.892 138.544 539.797 123.94C542.702 109.337 549.872 95.9222 560.4 85.3935C570.929 74.8653 584.343 67.6951 598.947 64.7903C613.55 61.8853 628.687 63.3762 642.444 69.0743C656.198 74.7723 667.956 84.4218 676.229 96.8021C684.502 109.182 688.917 123.737 688.917 138.627C688.898 158.587 680.959 177.723 666.846 191.836C652.732 205.95 633.593 213.888 613.634 213.911ZM613.634 71.0517C600.268 71.0517 587.201 75.0155 576.088 82.4412C564.974 89.8675 556.312 100.422 551.197 112.771C546.081 125.12 544.743 138.709 547.35 151.818C549.958 164.928 556.395 176.97 565.846 186.421C575.298 195.873 587.34 202.309 600.449 204.917C613.559 207.525 627.147 206.186 639.496 201.071C651.847 195.956 662.398 187.294 669.824 176.18C677.249 165.066 681.216 152 681.216 138.634C681.196 120.716 674.072 103.537 661.403 90.8668C648.727 78.1963 631.552 71.0703 613.634 71.0517Z" fill="#426572"/>
<path d="M649.716 109.419C648.176 108.557 646.359 108.326 644.652 108.774C642.945 109.221 641.478 110.313 640.557 111.818L628.19 132.035L608.429 164.305L607.877 165.21L585.061 146.957L580.902 143.633C578.174 141.451 574.06 140.764 571.435 143.633C569.202 146.066 568.515 150.763 571.435 153.099L600.772 176.563L604.931 179.888C606.657 181.274 608.3 182.032 610.553 181.73C611.56 181.607 612.525 181.252 613.373 180.696C614.22 180.14 614.93 179.396 615.444 178.521L627.811 158.304L647.579 126.041L652.142 118.584C653.945 115.593 652.867 111.1 649.716 109.419Z" fill="white"/>
<defs>
<linearGradient id="paint0_linear_24_132" x1="0.847277" y1="238.298" x2="805.206" y2="238.298" gradientUnits="userSpaceOnUse">
<stop stop-color="#C5E9FA"/>
<stop offset="1" stop-color="#C4F4EA"/>
</linearGradient>
</defs>
</svg>
