<svg width="17" height="17" viewBox="0 0 17 17" fill="none" xmlns="http://www.w3.org/2000/svg">
<rect x="1.78491" y="1.49414" width="14" height="14" rx="6.49819" fill="url(#paint0_radial_1336_1645)"/>
<rect x="1.78491" y="1.49414" width="14" height="14" rx="6.49819" fill="url(#paint1_radial_1336_1645)"/>
<rect x="1.78491" y="1.49414" width="14" height="14" rx="6.49819" fill="url(#paint2_radial_1336_1645)"/>
<path d="M12.2849 5.74414C12.2849 6.15835 11.9491 6.49414 11.5349 6.49414C11.1207 6.49414 10.7849 6.15835 10.7849 5.74414C10.7849 5.32993 11.1207 4.99414 11.5349 4.99414C11.9491 4.99414 12.2849 5.32993 12.2849 5.74414Z" fill="white"/>
<path fill-rule="evenodd" clip-rule="evenodd" d="M8.78491 10.9941C10.1656 10.9941 11.2849 9.87485 11.2849 8.49414C11.2849 7.11343 10.1656 5.99414 8.78491 5.99414C7.4042 5.99414 6.28491 7.11343 6.28491 8.49414C6.28491 9.87485 7.4042 10.9941 8.78491 10.9941ZM8.78491 9.99414C9.61334 9.99414 10.2849 9.32257 10.2849 8.49414C10.2849 7.66571 9.61334 6.99414 8.78491 6.99414C7.95648 6.99414 7.28491 7.66571 7.28491 8.49414C7.28491 9.32257 7.95648 9.99414 8.78491 9.99414Z" fill="white"/>
<path fill-rule="evenodd" clip-rule="evenodd" d="M3.78491 8.29414C3.78491 6.61398 3.78491 5.7739 4.11189 5.13217C4.39951 4.56768 4.85845 4.10874 5.42294 3.82112C6.06468 3.49414 6.90475 3.49414 8.58491 3.49414H8.98491C10.6651 3.49414 11.5051 3.49414 12.1469 3.82112C12.7114 4.10874 13.1703 4.56768 13.4579 5.13217C13.7849 5.7739 13.7849 6.61398 13.7849 8.29414V8.69414C13.7849 10.3743 13.7849 11.2144 13.4579 11.8561C13.1703 12.4206 12.7114 12.8795 12.1469 13.1672C11.5051 13.4941 10.6651 13.4941 8.98491 13.4941H8.58491C6.90475 13.4941 6.06468 13.4941 5.42294 13.1672C4.85845 12.8795 4.39951 12.4206 4.11189 11.8561C3.78491 11.2144 3.78491 10.3743 3.78491 8.69414V8.29414ZM8.58491 4.49414H8.98491C9.84149 4.49414 10.4238 4.49492 10.8739 4.53169C11.3123 4.56751 11.5365 4.63244 11.6929 4.71213C12.0692 4.90387 12.3752 5.20984 12.5669 5.58616C12.6466 5.74256 12.7115 5.96676 12.7474 6.40518C12.7841 6.85527 12.7849 7.43756 12.7849 8.29414V8.69414C12.7849 9.55072 12.7841 10.133 12.7474 10.5831C12.7115 11.0215 12.6466 11.2457 12.5669 11.4021C12.3752 11.7784 12.0692 12.0844 11.6929 12.2762C11.5365 12.3558 11.3123 12.4208 10.8739 12.4566C10.4238 12.4934 9.84149 12.4941 8.98491 12.4941H8.58491C7.72833 12.4941 7.14604 12.4934 6.69595 12.4566C6.25753 12.4208 6.03333 12.3558 5.87693 12.2762C5.50061 12.0844 5.19465 11.7784 5.0029 11.4021C4.92321 11.2457 4.85828 11.0215 4.82246 10.5831C4.78569 10.133 4.78491 9.55072 4.78491 8.69414V8.29414C4.78491 7.43756 4.78569 6.85527 4.82246 6.40518C4.85828 5.96676 4.92321 5.74256 5.0029 5.58616C5.19465 5.20984 5.50061 4.90387 5.87693 4.71213C6.03333 4.63244 6.25753 4.56751 6.69595 4.53169C7.14604 4.49492 7.72833 4.49414 8.58491 4.49414Z" fill="white"/>
<defs>
<radialGradient id="paint0_radial_1336_1645" cx="0" cy="0" r="1" gradientUnits="userSpaceOnUse" gradientTransform="translate(6.78491 11.9941) rotate(-55.3758) scale(12.7598)">
<stop stop-color="#B13589"/>
<stop offset="0.79309" stop-color="#C62F94"/>
<stop offset="1" stop-color="#8A3AC8"/>
</radialGradient>
<radialGradient id="paint1_radial_1336_1645" cx="0" cy="0" r="1" gradientUnits="userSpaceOnUse" gradientTransform="translate(6.28491 15.9941) rotate(-65.1363) scale(11.2971)">
<stop stop-color="#E0E8B7"/>
<stop offset="0.444662" stop-color="#FB8A2E"/>
<stop offset="0.71474" stop-color="#E2425C"/>
<stop offset="1" stop-color="#E2425C" stop-opacity="0"/>
</radialGradient>
<radialGradient id="paint2_radial_1336_1645" cx="0" cy="0" r="1" gradientUnits="userSpaceOnUse" gradientTransform="translate(1.03491 1.99414) rotate(-8.1301) scale(19.4454 4.15918)">
<stop offset="0.156701" stop-color="#406ADC"/>
<stop offset="0.467799" stop-color="#6A45BE"/>
<stop offset="1" stop-color="#6A45BE" stop-opacity="0"/>
</radialGradient>
</defs>
</svg>
