<svg width="17" height="17" viewBox="0 0 17 17" fill="none" xmlns="http://www.w3.org/2000/svg">
<rect x="1.21484" y="1.49512" width="14" height="14" rx="7" fill="#1275B1"/>
<path d="M6.52412 5.34119C6.52412 5.80847 6.1191 6.18727 5.61948 6.18727C5.11986 6.18727 4.71484 5.80847 4.71484 5.34119C4.71484 4.87392 5.11986 4.49512 5.61948 4.49512C6.1191 4.49512 6.52412 4.87392 6.52412 5.34119Z" fill="white"/>
<path d="M4.83856 6.80917H6.38495V11.4951H4.83856V6.80917Z" fill="white"/>
<path d="M8.87464 6.80917H7.32825V11.4951H8.87464C8.87464 11.4951 8.87464 10.0199 8.87464 9.09755C8.87464 8.54393 9.06367 7.98789 9.81794 7.98789C10.6704 7.98789 10.6652 8.71238 10.6612 9.27366C10.656 10.0073 10.6685 10.756 10.6685 11.4951H12.2148V9.02198C12.2017 7.44281 11.7903 6.71516 10.4365 6.71516C9.63254 6.71516 9.1342 7.08015 8.87464 7.41036V6.80917Z" fill="white"/>
</svg>
