<svg width="454" height="384" viewBox="0 0 454 384" fill="none" xmlns="http://www.w3.org/2000/svg">
<path d="M356.622 194.756C410.402 194.756 454 151.158 454 97.3779C454 43.5976 410.402 0 356.622 0C302.842 0 259.244 43.5976 259.244 97.3779C259.244 151.158 302.842 194.756 356.622 194.756Z" fill="#E5F1FF"/>
<path d="M145.961 342.904C168.188 320.677 168.188 284.641 145.961 262.414C123.735 240.187 87.6983 240.187 65.4717 262.414C43.245 284.641 43.245 320.677 65.4717 342.904C87.6983 365.13 123.735 365.13 145.961 342.904Z" fill="#E5F1FF"/>
<path d="M104.961 32.4633C76.2241 32.4633 52.9292 55.7593 52.9292 84.4961C52.9292 113.233 76.2252 136.529 104.961 136.529C133.698 136.529 156.994 113.233 156.994 84.4961C156.993 55.7593 133.697 32.4633 104.961 32.4633ZM104.961 117.763C86.5882 117.763 71.6945 102.869 71.6945 84.4961C71.6945 66.1234 86.5882 51.2297 104.961 51.2297C123.334 51.2297 138.227 66.1234 138.227 84.4961C138.227 102.869 123.332 117.763 104.961 117.763Z" fill="#A9CCEA"/>
<path d="M301.54 365.128C301.54 368.426 298.867 371.099 295.57 371.099H144.591C141.293 371.099 138.62 368.426 138.62 365.128C138.62 361.831 141.293 359.158 144.591 359.158H198.187L205.58 345.51H218.374H221.786H234.581L241.973 359.158H295.57C298.867 359.158 301.54 361.831 301.54 365.128Z" fill="#0F3157"/>
<path d="M231.203 333.142H206.466V340.393H231.203V333.142Z" fill="#FF4D6B"/>
<path d="M231.203 321.2H206.466V328.45H231.203V321.2Z" fill="#FF4D6B"/>
<path d="M415.787 296.663C411.485 298.315 406.812 299.22 401.928 299.22C380.565 299.22 363.245 281.901 363.245 260.536C363.245 239.171 380.564 221.853 401.928 221.853C423.292 221.853 440.611 239.171 440.611 260.536C440.611 266.261 439.367 271.695 437.136 276.583" stroke="#FF4D6B" stroke-width="1.27946" stroke-miterlimit="10" stroke-linecap="round" stroke-linejoin="round"/>
<path d="M306.564 78.9303H300.388C299.106 73.443 296.947 68.295 294.057 63.644L298.424 59.2777C300.306 57.3953 300.306 54.343 298.424 52.4606L288.722 42.7591C286.84 40.8767 283.788 40.8767 281.905 42.7591L277.539 47.1242C272.889 44.2342 267.741 42.076 262.254 40.795V34.6189C262.254 31.957 260.095 29.7988 257.433 29.7988H243.714C241.052 29.7988 238.894 31.957 238.894 34.6189V40.795C233.407 42.076 228.259 44.2353 223.608 47.1242L219.241 42.7591C217.359 40.8767 214.307 40.8767 212.424 42.7591L202.724 52.4606C200.842 54.343 200.842 57.3953 202.724 59.2777L207.09 63.644C204.2 68.2939 202.042 73.4419 200.76 78.9303H194.584C191.922 78.9303 189.764 81.0885 189.764 83.7504V97.4698C189.764 100.132 191.922 102.29 194.584 102.29H200.76C202.041 107.777 204.2 112.925 207.089 117.576L202.724 121.943C200.842 123.825 200.842 126.877 202.724 128.76L212.424 138.461C214.307 140.344 217.359 140.344 219.241 138.461L223.608 134.096C228.258 136.986 233.406 139.144 238.894 140.426V146.602C238.894 149.264 241.052 151.423 243.714 151.423H257.433C260.095 151.423 262.254 149.264 262.254 146.602V140.426C267.741 139.144 272.889 136.986 277.54 134.096L281.906 138.461C283.789 140.344 286.841 140.344 288.723 138.461L298.425 128.76C300.307 126.877 300.307 123.825 298.425 121.943L294.059 117.576C296.949 112.926 299.107 107.778 300.389 102.29H306.565C309.227 102.29 311.385 100.132 311.385 97.4698V83.7504C311.384 81.0873 309.226 78.9303 306.564 78.9303ZM250.574 115.082C237.059 115.082 226.103 104.126 226.103 90.6096C226.103 77.0944 237.059 66.138 250.574 66.138C264.09 66.138 275.047 77.0944 275.047 90.6096C275.047 104.126 264.091 115.082 250.574 115.082Z" fill="#289DF2"/>
<path d="M50.1346 317.941C42.9487 317.941 37.1233 312.115 37.1233 304.928V101.296C37.1233 94.1089 42.9487 88.2834 50.1358 88.2834H390.026C397.212 88.2834 403.038 94.1089 403.038 101.295V304.927C403.038 312.113 397.213 317.94 390.026 317.94H50.1346V317.941Z" fill="#0F3775"/>
<path d="M101.549 116.696H63.804V125.013H101.549V116.696Z" fill="#284D89"/>
<path d="M146.97 116.696H109.225V125.013H146.97V116.696Z" fill="#284D89"/>
<path d="M262.124 116.696H224.379V125.013H262.124V116.696Z" fill="#284D89"/>
<path d="M377.278 116.696H339.533V125.013H377.278V116.696Z" fill="#284D89"/>
<path d="M219.581 116.696H152.088V125.013H219.581V116.696Z" fill="#FF4D6B"/>
<path d="M334.094 116.696H266.602V125.013H334.094V116.696Z" fill="#2889DB"/>
<path d="M70.628 110.085H64.0173V114.137H70.628V110.085Z" fill="#2889DB"/>
<path d="M133.002 131.837H64.0173V135.889H133.002V131.837Z" fill="white"/>
<path d="M84.4892 138.981H64.0173V143.033H84.4892V138.981Z" fill="white"/>
<path d="M137.054 288.787H73.0799C68.3097 288.787 64.4438 284.92 64.4438 280.151V164.357C64.4438 159.587 68.3108 155.721 73.0799 155.721H137.054C141.824 155.721 145.69 159.588 145.69 164.357V280.151C145.69 284.92 141.824 288.787 137.054 288.787Z" fill="#284D89"/>
<path d="M101.869 175.233H74.6797V179.391H101.869V175.233Z" fill="white"/>
<path d="M101.869 184.508H74.6797V188.667H101.869V184.508Z" fill="white"/>
<path d="M101.869 193.784H74.6797V197.943H101.869V193.784Z" fill="white"/>
<path d="M91.3129 232.489H74.6797V236.648H91.3129V232.489Z" fill="white"/>
<path d="M91.3129 241.766H74.6797V245.924H91.3129V241.766Z" fill="white"/>
<path d="M119.888 241.766H103.254V245.924H119.888V241.766Z" fill="white"/>
<path d="M85.1289 221.934H74.6797V226.092H85.1289V221.934Z" fill="white"/>
<path d="M125.005 221.934H119.461V226.092H125.005V221.934Z" fill="white"/>
<path d="M117.329 221.934H88.7532V226.092H117.329V221.934Z" fill="#FF4D6B"/>
<path d="M78.6783 206.26H74.6797V210.419H78.6783V206.26Z" fill="#2889DB"/>
<path d="M78.6783 213.616H74.6797V217.775H78.6783V213.616Z" fill="#FF4D6B"/>
<path d="M96.857 246.777H95.3638L98.9357 241.445H100.429L96.857 246.777Z" fill="white"/>
<path d="M136.415 253.92H74.6797V257.439H136.415V253.92Z" fill="#282E5C"/>
<path d="M136.415 261.917H74.6797V265.436H136.415V261.917Z" fill="#282E5C"/>
<path d="M433.362 210.738H263.616C259.376 210.738 255.939 207.301 255.939 203.061V156.999C255.939 152.759 259.376 149.322 263.616 149.322H433.362C437.602 149.322 441.039 152.759 441.039 156.999V203.061C441.038 207.301 437.601 210.738 433.362 210.738Z" fill="#289DF2"/>
<path d="M310.957 188.987C310.957 188.987 320.34 165.957 347.209 171.501C374.078 177.045 387.726 207.326 422.272 182.59" stroke="white" stroke-width="1.27946" stroke-miterlimit="10"/>
<path d="M397.962 190.266H394.123V194.104H397.962V190.266Z" fill="#289DF2" stroke="white" stroke-width="1.27946" stroke-miterlimit="10"/>
<path d="M315.649 170.434H364.269" stroke="white" stroke-width="0.639731" stroke-miterlimit="10"/>
<path d="M371.732 193.253H420.353" stroke="white" stroke-width="0.639731" stroke-miterlimit="10"/>
<path d="M339.959 168.515H336.121V172.354H339.959V168.515Z" fill="#289DF2" stroke="white" stroke-width="1.27946" stroke-miterlimit="10"/>
<path d="M288.353 226.519H251.675C248.612 226.519 246.131 224.036 246.131 220.975V165.957C246.131 162.894 248.614 160.412 251.675 160.412H288.353C291.416 160.412 293.897 162.895 293.897 165.957V220.975C293.897 224.036 291.416 226.519 288.353 226.519Z" fill="#284D89"/>
<path d="M280.783 169.795H253.594V173.544H280.783V169.795Z" fill="white"/>
<path d="M280.783 178.157H253.594V181.906H280.783V178.157Z" fill="white"/>
<path d="M263.83 186.519H253.594V190.268H263.83V186.519Z" fill="white"/>
<path d="M271.294 195.17H253.594V198.919H271.294V195.17Z" fill="#289DF2"/>
<path d="M265.535 203.532H253.594V207.281H265.535V203.532Z" fill="#289DF2"/>
<path d="M265.535 211.894H253.594V215.643H265.535V211.894Z" fill="white"/>
<path d="M411.183 141.006H430.376" stroke="#284D89" stroke-width="2.55892" stroke-miterlimit="10" stroke-linecap="round" stroke-linejoin="round"/>
<path d="M368.061 249.298L361.436 254.482L351.932 256.211C351.932 256.211 343.005 255.634 342.14 255.634C341.277 255.634 335.229 250.738 335.229 250.738L323.997 246.707L316.221 249.586L307.005 247.57L293.181 246.705L279.934 251.89L268.99 253.618L259.198 256.786L248.254 257.65L236.446 248.435L225.502 246.418L214.27 252.754L205.342 255.634L195.206 255.346L182.432 263.122H174.815L161.951 267.633" stroke="#FF5C66" stroke-width="1.15192" stroke-miterlimit="10"/>
<path d="M162.144 267.827H368.348" stroke="#F7F7F7" stroke-width="0.287981" stroke-miterlimit="10"/>
<path d="M162.241 265.234H160.129V270.418H162.241V265.234Z" fill="#F7F7F7"/>
<path d="M369.212 265.234H367.101V270.418H369.212V265.234Z" fill="#F7F7F7"/>
<path d="M368.156 267.827V250.45" stroke="#F7F7F7" stroke-width="0.287981" stroke-miterlimit="10"/>
<path d="M369.308 249.586C369.308 250.487 368.577 251.218 367.676 251.218C366.775 251.218 366.044 250.487 366.044 249.586C366.044 248.685 366.775 247.955 367.676 247.955C368.577 247.955 369.308 248.685 369.308 249.586Z" fill="#F7F7F7"/>
<path d="M163.244 279.771V273.069H164.016V275.543H164.082C164.138 275.456 164.217 275.344 164.317 275.209C164.42 275.072 164.566 274.95 164.756 274.843C164.948 274.734 165.207 274.679 165.535 274.679C165.958 274.679 166.331 274.785 166.654 274.996C166.977 275.208 167.229 275.508 167.41 275.896C167.591 276.285 167.681 276.743 167.681 277.271C167.681 277.803 167.591 278.265 167.41 278.655C167.229 279.044 166.978 279.345 166.657 279.559C166.336 279.77 165.967 279.876 165.548 279.876C165.225 279.876 164.966 279.823 164.772 279.716C164.578 279.607 164.428 279.483 164.324 279.346C164.219 279.206 164.138 279.091 164.082 278.999H163.99V279.771H163.244ZM164.003 277.258C164.003 277.637 164.059 277.972 164.17 278.263C164.281 278.551 164.444 278.776 164.658 278.94C164.871 279.101 165.133 279.182 165.443 279.182C165.766 279.182 166.035 279.097 166.251 278.927C166.47 278.755 166.633 278.523 166.742 278.233C166.854 277.941 166.909 277.616 166.909 277.258C166.909 276.904 166.855 276.586 166.746 276.302C166.639 276.016 166.476 275.791 166.258 275.625C166.042 275.457 165.77 275.373 165.443 275.373C165.129 275.373 164.865 275.452 164.651 275.612C164.437 275.769 164.276 275.989 164.167 276.273C164.058 276.554 164.003 276.883 164.003 277.258ZM170.971 279.876C170.486 279.876 170.068 279.769 169.717 279.555C169.368 279.339 169.099 279.038 168.909 278.652C168.721 278.264 168.627 277.812 168.627 277.297C168.627 276.782 168.721 276.328 168.909 275.936C169.099 275.541 169.363 275.233 169.701 275.013C170.041 274.79 170.438 274.679 170.892 274.679C171.154 274.679 171.412 274.723 171.668 274.81C171.923 274.897 172.155 275.039 172.365 275.235C172.574 275.429 172.741 275.687 172.865 276.008C172.99 276.328 173.052 276.723 173.052 277.192V277.52H169.177V276.852H172.267C172.267 276.568 172.21 276.315 172.096 276.093C171.985 275.87 171.826 275.695 171.619 275.566C171.413 275.437 171.171 275.373 170.892 275.373C170.584 275.373 170.318 275.449 170.093 275.602C169.871 275.752 169.7 275.949 169.58 276.191C169.46 276.433 169.4 276.693 169.4 276.97V277.415C169.4 277.795 169.465 278.116 169.596 278.38C169.729 278.642 169.913 278.842 170.149 278.979C170.385 279.115 170.659 279.182 170.971 279.182C171.173 279.182 171.357 279.154 171.52 279.097C171.686 279.038 171.829 278.951 171.949 278.835C172.069 278.717 172.162 278.571 172.227 278.397L172.973 278.606C172.895 278.859 172.763 279.082 172.577 279.274C172.392 279.464 172.163 279.612 171.89 279.719C171.617 279.824 171.311 279.876 170.971 279.876ZM176.413 274.744V275.399H173.808V274.744H176.413ZM174.567 273.54H175.34V278.331C175.34 278.549 175.371 278.713 175.434 278.822C175.5 278.929 175.583 279.001 175.683 279.038C175.786 279.073 175.894 279.091 176.007 279.091C176.092 279.091 176.162 279.086 176.217 279.077C176.271 279.067 176.315 279.058 176.348 279.051L176.505 279.745C176.452 279.765 176.379 279.784 176.285 279.804C176.192 279.826 176.073 279.837 175.929 279.837C175.71 279.837 175.497 279.79 175.287 279.696C175.08 279.602 174.908 279.459 174.77 279.267C174.635 279.075 174.567 278.833 174.567 278.541V273.54ZM179.054 279.889C178.735 279.889 178.446 279.829 178.187 279.709C177.927 279.587 177.721 279.411 177.568 279.182C177.416 278.951 177.339 278.672 177.339 278.344C177.339 278.056 177.396 277.823 177.509 277.644C177.623 277.463 177.774 277.321 177.964 277.219C178.154 277.116 178.363 277.04 178.593 276.989C178.824 276.937 179.056 276.896 179.29 276.865C179.595 276.826 179.843 276.796 180.033 276.777C180.225 276.755 180.364 276.719 180.451 276.669C180.541 276.619 180.586 276.531 180.586 276.407V276.381C180.586 276.058 180.497 275.807 180.321 275.628C180.146 275.449 179.881 275.36 179.525 275.36C179.157 275.36 178.867 275.44 178.658 275.602C178.449 275.763 178.301 275.936 178.216 276.119L177.483 275.857C177.614 275.552 177.789 275.314 178.007 275.144C178.227 274.971 178.467 274.851 178.727 274.784C178.989 274.714 179.246 274.679 179.499 274.679C179.661 274.679 179.846 274.699 180.055 274.738C180.267 274.775 180.471 274.852 180.667 274.97C180.866 275.088 181.031 275.266 181.162 275.504C181.293 275.741 181.358 276.06 181.358 276.459V279.771H180.586V279.091H180.546C180.494 279.2 180.407 279.316 180.285 279.441C180.162 279.565 180 279.671 179.797 279.758C179.594 279.845 179.346 279.889 179.054 279.889ZM179.172 279.195C179.477 279.195 179.735 279.135 179.944 279.015C180.156 278.895 180.315 278.74 180.422 278.551C180.531 278.361 180.586 278.161 180.586 277.952V277.245C180.553 277.284 180.481 277.32 180.37 277.353C180.261 277.383 180.134 277.411 179.99 277.435C179.848 277.456 179.71 277.476 179.574 277.493C179.441 277.509 179.333 277.522 179.25 277.533C179.05 277.559 178.862 277.601 178.687 277.66C178.515 277.717 178.375 277.803 178.269 277.919C178.164 278.032 178.111 278.187 178.111 278.384C178.111 278.652 178.211 278.855 178.409 278.992C178.61 279.128 178.864 279.195 179.172 279.195ZM187.546 274.744V275.399H184.941V274.744H187.546ZM185.7 273.54H186.472V278.331C186.472 278.549 186.504 278.713 186.567 278.822C186.633 278.929 186.716 279.001 186.816 279.038C186.919 279.073 187.027 279.091 187.14 279.091C187.225 279.091 187.295 279.086 187.349 279.077C187.404 279.067 187.448 279.058 187.48 279.051L187.637 279.745C187.585 279.765 187.512 279.784 187.418 279.804C187.324 279.826 187.205 279.837 187.061 279.837C186.843 279.837 186.629 279.79 186.42 279.696C186.213 279.602 186.04 279.459 185.903 279.267C185.768 279.075 185.7 278.833 185.7 278.541V273.54ZM190.761 279.876C190.277 279.876 189.859 279.769 189.508 279.555C189.159 279.339 188.889 279.038 188.699 278.652C188.512 278.264 188.418 277.812 188.418 277.297C188.418 276.782 188.512 276.328 188.699 275.936C188.889 275.541 189.153 275.233 189.491 275.013C189.832 274.79 190.229 274.679 190.683 274.679C190.944 274.679 191.203 274.723 191.458 274.81C191.714 274.897 191.946 275.039 192.155 275.235C192.365 275.429 192.532 275.687 192.656 276.008C192.78 276.328 192.843 276.723 192.843 277.192V277.52H188.968V276.852H192.057C192.057 276.568 192 276.315 191.887 276.093C191.776 275.87 191.616 275.695 191.409 275.566C191.204 275.437 190.962 275.373 190.683 275.373C190.375 275.373 190.109 275.449 189.884 275.602C189.662 275.752 189.49 275.949 189.37 276.191C189.25 276.433 189.19 276.693 189.19 276.97V277.415C189.19 277.795 189.256 278.116 189.387 278.38C189.52 278.642 189.704 278.842 189.94 278.979C190.175 279.115 190.449 279.182 190.761 279.182C190.964 279.182 191.147 279.154 191.311 279.097C191.477 279.038 191.62 278.951 191.74 278.835C191.86 278.717 191.952 278.571 192.018 278.397L192.764 278.606C192.686 278.859 192.554 279.082 192.368 279.274C192.183 279.464 191.954 279.612 191.681 279.719C191.408 279.824 191.102 279.876 190.761 279.876ZM197.578 275.87L196.884 276.067C196.841 275.951 196.776 275.839 196.691 275.729C196.608 275.618 196.495 275.527 196.351 275.455C196.207 275.383 196.023 275.347 195.798 275.347C195.49 275.347 195.234 275.417 195.029 275.559C194.826 275.699 194.724 275.877 194.724 276.093C194.724 276.285 194.794 276.436 194.934 276.548C195.073 276.659 195.292 276.752 195.588 276.826L196.335 277.009C196.784 277.118 197.119 277.285 197.339 277.51C197.56 277.732 197.67 278.019 197.67 278.371C197.67 278.659 197.587 278.916 197.421 279.143C197.257 279.37 197.028 279.549 196.734 279.68C196.439 279.811 196.097 279.876 195.706 279.876C195.193 279.876 194.769 279.765 194.433 279.542C194.097 279.32 193.884 278.995 193.795 278.567L194.528 278.384C194.598 278.654 194.73 278.857 194.924 278.992C195.12 279.128 195.377 279.195 195.693 279.195C196.053 279.195 196.339 279.119 196.551 278.966C196.764 278.811 196.871 278.626 196.871 278.41C196.871 278.235 196.81 278.089 196.688 277.971C196.566 277.851 196.378 277.762 196.125 277.703L195.287 277.507C194.827 277.397 194.489 277.228 194.273 276.999C194.059 276.768 193.952 276.479 193.952 276.132C193.952 275.848 194.032 275.597 194.191 275.379C194.352 275.161 194.572 274.99 194.849 274.866C195.128 274.741 195.444 274.679 195.798 274.679C196.295 274.679 196.686 274.788 196.969 275.006C197.255 275.224 197.458 275.512 197.578 275.87ZM201.019 274.744V275.399H198.414V274.744H201.019ZM199.173 273.54H199.945V278.331C199.945 278.549 199.977 278.713 200.04 278.822C200.105 278.929 200.188 279.001 200.289 279.038C200.391 279.073 200.499 279.091 200.613 279.091C200.698 279.091 200.768 279.086 200.822 279.077C200.877 279.067 200.92 279.058 200.953 279.051L201.11 279.745C201.058 279.765 200.985 279.784 200.891 279.804C200.797 279.826 200.678 279.837 200.534 279.837C200.316 279.837 200.102 279.79 199.893 279.696C199.685 279.602 199.513 279.459 199.376 279.267C199.24 279.075 199.173 278.833 199.173 278.541V273.54Z" fill="#F7F7F7"/>
<path d="M338.014 275.314H209.76V277.618H338.014V275.314Z" fill="#28385E"/>
<path d="M288.478 275.314H209.76V277.618H288.478V275.314Z" fill="#FF4D6B"/>
<path d="M272.831 279.73H209.76V282.033H272.831V279.73Z" fill="#28385E"/>
<path d="M169.776 286.594H177.552L178.561 284.434H162.865V288.034H168.336L169.776 286.594Z" fill="#FF4D6B"/>
<path d="M185.893 284.41H185.028V285.274H185.893V284.41Z" fill="#F7F7F7"/>
<path d="M191.256 284.41H190.392V285.274H191.256V284.41Z" fill="#F7F7F7"/>
<path d="M196.62 284.41H195.755V285.274H196.62V284.41Z" fill="#F7F7F7"/>
<path d="M360.862 243.704C360.478 243.704 360.132 243.628 359.825 243.475C359.517 243.322 359.27 243.113 359.085 242.846C358.9 242.58 358.798 242.277 358.781 241.937H359.566C359.597 242.24 359.734 242.491 359.978 242.689C360.225 242.886 360.52 242.984 360.862 242.984C361.137 242.984 361.381 242.92 361.595 242.791C361.811 242.662 361.98 242.485 362.102 242.261C362.227 242.034 362.289 241.777 362.289 241.492C362.289 241.199 362.225 240.939 362.096 240.709C361.969 240.478 361.795 240.296 361.572 240.163C361.35 240.03 361.095 239.962 360.81 239.96C360.605 239.958 360.394 239.989 360.178 240.055C359.962 240.118 359.784 240.2 359.645 240.3L358.885 240.209L359.291 236.91H362.773V237.63H359.972L359.736 239.607H359.776C359.913 239.497 360.085 239.407 360.293 239.335C360.5 239.263 360.716 239.227 360.941 239.227C361.351 239.227 361.716 239.325 362.037 239.521C362.36 239.716 362.613 239.982 362.796 240.32C362.982 240.658 363.074 241.044 363.074 241.479C363.074 241.906 362.978 242.288 362.786 242.624C362.597 242.958 362.335 243.222 362.001 243.416C361.667 243.608 361.287 243.704 360.862 243.704ZM366.561 243.704C366.068 243.704 365.648 243.57 365.301 243.301C364.954 243.031 364.689 242.639 364.505 242.127C364.322 241.612 364.23 240.99 364.23 240.261C364.23 239.537 364.322 238.918 364.505 238.405C364.691 237.891 364.957 237.498 365.304 237.227C365.653 236.955 366.072 236.818 366.561 236.818C367.049 236.818 367.467 236.955 367.814 237.227C368.163 237.498 368.429 237.891 368.613 238.405C368.798 238.918 368.891 239.537 368.891 240.261C368.891 240.99 368.799 241.612 368.616 242.127C368.433 242.639 368.167 243.031 367.821 243.301C367.474 243.57 367.054 243.704 366.561 243.704ZM366.561 242.984C367.049 242.984 367.429 242.748 367.699 242.277C367.97 241.806 368.105 241.134 368.105 240.261C368.105 239.681 368.043 239.187 367.919 238.779C367.797 238.371 367.62 238.06 367.389 237.846C367.159 237.632 366.883 237.525 366.561 237.525C366.076 237.525 365.698 237.764 365.425 238.242C365.152 238.717 365.016 239.391 365.016 240.261C365.016 240.841 365.077 241.335 365.199 241.74C365.321 242.146 365.497 242.455 365.726 242.667C365.957 242.878 366.236 242.984 366.561 242.984ZM372.32 243.704C371.827 243.704 371.407 243.57 371.061 243.301C370.714 243.031 370.449 242.639 370.265 242.127C370.082 241.612 369.99 240.99 369.99 240.261C369.99 239.537 370.082 238.918 370.265 238.405C370.451 237.891 370.717 237.498 371.064 237.227C371.413 236.955 371.832 236.818 372.32 236.818C372.809 236.818 373.227 236.955 373.574 237.227C373.923 237.498 374.189 237.891 374.372 238.405C374.558 238.918 374.651 239.537 374.651 240.261C374.651 240.99 374.559 241.612 374.376 242.127C374.192 242.639 373.927 243.031 373.58 243.301C373.234 243.57 372.814 243.704 372.32 243.704ZM372.32 242.984C372.809 242.984 373.189 242.748 373.459 242.277C373.73 241.806 373.865 241.134 373.865 240.261C373.865 239.681 373.803 239.187 373.679 238.779C373.556 238.371 373.38 238.06 373.148 237.846C372.919 237.632 372.643 237.525 372.32 237.525C371.836 237.525 371.458 237.764 371.185 238.242C370.912 238.717 370.776 239.391 370.776 240.261C370.776 240.841 370.837 241.335 370.959 241.74C371.081 242.146 371.257 242.455 371.486 242.667C371.717 242.878 371.995 242.984 372.32 242.984Z" fill="#F7F7F7"/>
<path d="M347.229 282.226H345.308L342.237 275.314H344.157L347.229 282.226Z" fill="#28385E"/>
<path d="M352.221 282.226H350.301L347.229 275.314H349.149L352.221 282.226Z" fill="#28385E"/>
<path d="M357.212 282.226H355.292L352.221 275.314H354.141L357.212 282.226Z" fill="#28385E"/>
<path d="M362.205 282.226H360.285L357.212 275.314H359.132L362.205 282.226Z" fill="#28385E"/>
<path d="M367.101 282.226H365.18L362.109 275.314H364.029L367.101 282.226Z" fill="#28385E"/>
<path d="M358.765 44.256H327.547V49.8477H358.765V44.256Z" fill="#A9CCEA"/>
<path d="M374.618 54.2614H327.547V59.8519H374.618V54.2614Z" fill="#A9CCEA"/>
<path d="M385.594 64.2673H327.547V69.859H385.594V64.2673Z" fill="#A9CCEA"/>
<path d="M349.741 74.2727H327.547V79.8644H349.741V74.2727Z" fill="#A9CCEA"/>
<path d="M31.2184 111.642H0V117.234H31.2184V111.642Z" fill="#2889DB"/>
<path d="M47.0709 121.647H0V127.238H47.0709V121.647Z" fill="#A9CCEA"/>
<path d="M58.0466 131.652H0V137.243H58.0466V131.652Z" fill="#A9CCEA"/>
<path d="M22.1943 141.659H0V147.25H22.1943V141.659Z" fill="#A9CCEA"/>
<path d="M210.944 307.979H77.8784V325.252H210.944V307.979Z" stroke="#289DF2" stroke-width="1.27946" stroke-miterlimit="10"/>
<path d="M148.462 171.927H142.065V211.164H148.462V171.927Z" stroke="#289DF2" stroke-width="1.27946" stroke-miterlimit="10"/>
<path d="M405.412 282.299C417.434 280.36 425.607 269.043 423.669 257.021C421.73 244.999 410.413 236.825 398.391 238.763C386.37 240.702 378.196 252.019 380.135 264.041C382.074 276.063 393.391 284.238 405.412 282.299Z" fill="#FF4D6B"/>
<path d="M400.33 258.469L391.573 261.678L400.33 264.861V268.149L387.812 263.388V259.969L400.33 255.209V258.469Z" fill="#F9FBFC"/>
<path d="M403.191 255.208L415.71 259.968V263.387L403.191 268.148V264.86L411.949 261.677L403.191 258.468V255.208Z" fill="#F9FBFC"/>
<path d="M438.692 278.551C438.692 280.14 437.403 281.429 435.813 281.429C434.224 281.429 432.935 280.14 432.935 278.551C432.935 276.961 434.224 275.672 435.813 275.672C437.403 275.672 438.692 276.961 438.692 278.551Z" stroke="#FF4D6B" stroke-width="1.27946" stroke-miterlimit="10"/>
<path d="M175.119 69.9946H70.8413V80.8705H175.119V69.9946Z" stroke="#289DF2" stroke-width="1.27946" stroke-miterlimit="10"/>
<path d="M139.933 73.5133H75.3186V76.712H139.933V73.5133Z" fill="#289DF2"/>
<path d="M235.893 154.868H159.551V158.706H235.893V154.868Z" fill="#284D89"/>
<path d="M194.151 154.868H159.551V158.706H194.151V154.868Z" fill="#2889DB"/>
<path d="M235.893 164.783H159.551V168.622H235.893V164.783Z" fill="#284D89"/>
<path d="M212.703 164.783H159.551V168.622H212.703V164.783Z" fill="#FF4D6B"/>
<path d="M235.893 174.699H159.551V178.538H235.893V174.699Z" fill="#284D89"/>
<path d="M175.118 174.699H159.551V178.538H175.118V174.699Z" fill="#1AE5FF"/>
<path d="M161.365 148.15H159.872V149.644H161.365V148.15Z" fill="#284D89"/>
<path d="M166.483 148.15H164.99V149.643H166.483V148.15Z" fill="#284D89"/>
<path d="M171.601 148.15H170.107V149.643H171.601V148.15Z" fill="#284D89"/>
<path d="M304.416 200.431H301.929V202.92H304.416V200.431Z" fill="white"/>
<path d="M312.948 200.431H310.46V202.92H312.948V200.431Z" fill="white"/>
<path d="M321.478 200.431H318.989V202.92H321.478V200.431Z" fill="white"/>
<path d="M342.504 101.569H337.84V106.234H342.504V101.569Z" fill="white"/>
<path d="M358.498 101.569H353.833V106.234H358.498V101.569Z" fill="white"/>
<path d="M374.491 101.569H369.827V106.234H374.491V101.569Z" fill="white"/>
<path d="M276.398 294.344H271.733V299.009H276.398V294.344Z" fill="white"/>
<path d="M292.392 294.344H287.727V299.009H292.392V294.344Z" fill="white"/>
<path d="M308.384 294.344H303.72V299.009H308.384V294.344Z" fill="white"/>
<path d="M78.5175 165.174H76.0303V167.662H78.5175V165.174Z" fill="white"/>
<path d="M87.0482 165.174H84.5598V167.662H87.0482V165.174Z" fill="white"/>
<path d="M95.5784 165.174H93.0901V167.662H95.5784V165.174Z" fill="white"/>
<path d="M424.832 162.118H383.462V166.17H424.832V162.118Z" fill="white"/>
<path d="M395.739 169.261H383.462V173.313H395.739V169.261Z" fill="#287DD1"/>
<path d="M49.7294 170.434H40.7734V161.478H32.4562V170.434H23.5002V178.751H32.4562V187.707H40.7734V178.751H49.7294V170.434Z" fill="#1AE5FF"/>
<path d="M25.7627 195.385H20.3015V189.923H15.2306V195.385H9.76831V200.456H15.2306V205.917H20.3015V200.456H25.7627V195.385Z" fill="#2889DB"/>
<path d="M175.239 190.615C167.504 190.615 161.233 196.887 161.233 204.622C161.233 212.358 167.504 218.628 175.239 218.628C182.976 218.628 189.246 212.357 189.246 204.622C189.246 196.887 182.974 190.615 175.239 190.615ZM175.239 211.921C171.208 211.921 167.941 208.653 167.941 204.622C167.941 200.59 171.209 197.323 175.239 197.323C179.271 197.323 182.539 200.59 182.539 204.622C182.539 208.653 179.27 211.921 175.239 211.921Z" fill="#284D89"/>
<path d="M165.705 203.241C167.006 203.241 168.147 202.467 168.739 201.308C169.945 198.943 172.403 197.323 175.24 197.323C178.077 197.323 180.534 198.943 181.741 201.308C182.332 202.467 183.474 203.241 184.775 203.241C187.226 203.241 188.903 200.673 187.825 198.471C185.548 193.819 180.769 190.615 175.241 190.615C169.713 190.615 164.933 193.819 162.656 198.472C161.577 200.673 163.253 203.241 165.705 203.241Z" fill="#289DF2"/>
<path d="M198.763 204.622C198.763 212.357 205.035 218.628 212.77 218.628C220.506 218.628 226.776 212.357 226.776 204.622C226.776 196.886 220.505 190.615 212.77 190.615C205.035 190.615 198.763 196.887 198.763 204.622ZM220.069 204.622C220.069 208.652 216.801 211.92 212.77 211.92C208.738 211.92 205.47 208.652 205.47 204.622C205.47 200.59 208.738 197.323 212.77 197.323C216.801 197.323 220.069 200.59 220.069 204.622Z" fill="#284D89"/>
<path d="M211.39 214.157C211.39 212.855 210.616 211.715 209.456 211.122C207.092 209.916 205.471 207.459 205.471 204.622C205.471 201.784 207.092 199.327 209.456 198.12C210.616 197.529 211.39 196.387 211.39 195.086C211.39 192.635 208.822 190.958 206.62 192.036C201.968 194.313 198.763 199.093 198.763 204.622C198.763 210.15 201.968 214.929 206.62 217.207C208.821 218.284 211.39 216.609 211.39 214.157Z" fill="#FF4D6B"/>
<path d="M135.241 149.323H109.652V210.739H135.241V149.323Z" stroke="#289DF2" stroke-width="1.27946" stroke-miterlimit="10"/>
<path d="M120.741 161.158H113.277V163.364H120.741V161.158Z" fill="#1AE5FF"/>
<path d="M120.741 166.079H113.277V168.285H120.741V166.079Z" fill="#1AE5FF"/>
<path d="M120.741 171H113.277V173.206H120.741V171Z" fill="#1AE5FF"/>
<path d="M120.741 196.591H113.277V198.797H120.741V196.591Z" fill="#1AE5FF"/>
<path d="M124.153 178.218H113.277V180.424H124.153V178.218Z" fill="#1AE5FF"/>
<path d="M124.153 183.14H113.277V185.345H124.153V183.14Z" fill="white"/>
<path d="M124.153 188.06H113.277V190.266H124.153V188.06Z" fill="white"/>
<path d="M50.3683 226.092H17.9551V258.506H50.3683V226.092Z" fill="#289DF2"/>
<path d="M33.3097 233.768H0.896484V266.181H33.3097V233.768Z" stroke="#289DF2" stroke-width="1.27946" stroke-miterlimit="10"/>
<path d="M417.155 319.921H403.507V333.569H417.155V319.921Z" stroke="#289DF2" stroke-width="1.27946" stroke-miterlimit="10"/>
<path d="M239.732 298.383H251.248L257.645 304.78H324.178L334.414 294.544H370.24" stroke="white" stroke-width="1.27946" stroke-miterlimit="10"/>
<path d="M236.373 301.901C238.228 301.901 239.732 300.398 239.732 298.543C239.732 296.688 238.228 295.184 236.373 295.184C234.518 295.184 233.015 296.688 233.015 298.543C233.015 300.398 234.518 301.901 236.373 301.901Z" stroke="white" stroke-width="1.27946" stroke-miterlimit="10"/>
<path d="M373.704 297.743C375.559 297.743 377.063 296.239 377.063 294.384C377.063 292.529 375.559 291.025 373.704 291.025C371.849 291.025 370.346 292.529 370.346 294.384C370.346 296.239 371.849 297.743 373.704 297.743Z" stroke="white" stroke-width="1.27946" stroke-miterlimit="10"/>
<path d="M418.86 117.763C418.86 120.118 416.95 122.028 414.595 122.028C412.239 122.028 410.33 120.118 410.33 117.763C410.33 115.407 412.239 113.497 414.595 113.497C416.95 113.497 418.86 115.407 418.86 117.763Z" fill="#289DF2"/>
<path d="M24.779 284.096C24.779 286.451 22.8694 288.361 20.5138 288.361C18.1582 288.361 16.2485 286.451 16.2485 284.096C16.2485 281.74 18.1582 279.831 20.5138 279.831C22.8705 279.831 24.779 281.74 24.779 284.096Z" fill="#FF4D6B"/>
<path d="M44.3988 299.876C44.3988 303.998 41.0571 307.339 36.9348 307.339C32.8126 307.339 29.4709 303.998 29.4709 299.876C29.4709 295.753 32.8126 292.412 36.9348 292.412C41.0571 292.412 44.3988 295.753 44.3988 299.876Z" fill="#FF4D6B"/>
<path d="M298.589 325.038H268.734V331.862H298.589V325.038Z" stroke="#289DF2" stroke-width="1.27946" stroke-miterlimit="10"/>
<path d="M334.201 337.833H268.734V344.657H334.201V337.833Z" stroke="#289DF2" stroke-width="1.27946" stroke-miterlimit="10"/>
<path d="M85.843 331.574L78.6072 338.81" stroke="#289DF2" stroke-width="1.27946" stroke-miterlimit="10" stroke-linecap="round" stroke-linejoin="round"/>
<path d="M92.7998 331.574L85.564 338.81" stroke="#289DF2" stroke-width="1.27946" stroke-miterlimit="10" stroke-linecap="round" stroke-linejoin="round"/>
<path d="M99.7573 331.574L92.5215 338.81" stroke="#289DF2" stroke-width="1.27946" stroke-miterlimit="10" stroke-linecap="round" stroke-linejoin="round"/>
<path d="M106.714 331.574L99.4783 338.81" stroke="#289DF2" stroke-width="1.27946" stroke-miterlimit="10" stroke-linecap="round" stroke-linejoin="round"/>
<path d="M113.672 331.574L106.436 338.81" stroke="#289DF2" stroke-width="1.27946" stroke-miterlimit="10" stroke-linecap="round" stroke-linejoin="round"/>
</svg>
